<svg width="16" height="16" viewBox="0 0 16 16" fill="none" xmlns="http://www.w3.org/2000/svg">
<path d="M10.6667 15.1666H5.33332C2.25332 15.1666 1.67999 13.7333 1.53332 12.3399L1.03332 6.99993C0.959989 6.29993 0.939989 5.26659 1.63332 4.49326C2.23332 3.82659 3.22666 3.50659 4.66666 3.50659H11.3333C12.78 3.50659 13.7733 3.83326 14.3667 4.49326C15.06 5.26659 15.04 6.29993 14.9667 7.00659L14.4667 12.3333C14.32 13.7333 13.7467 15.1666 10.6667 15.1666ZM4.66666 4.49993C3.53999 4.49993 2.76666 4.71992 2.37332 5.15992C2.04666 5.51992 1.93999 6.07326 2.02666 6.89993L2.52666 12.2399C2.63999 13.2933 2.92666 14.1666 5.33332 14.1666H10.6667C13.0667 14.1666 13.36 13.2933 13.4733 12.2333L13.9733 6.90659C14.06 6.07326 13.9533 5.51992 13.6267 5.15992C13.2333 4.71992 12.46 4.49993 11.3333 4.49993H4.66666Z" fill="white"/>
<path d="M10.6666 4.49992C10.3933 4.49992 10.1666 4.27325 10.1666 3.99992V3.46659C10.1666 2.27992 10.1666 1.83325 8.53325 1.83325H7.46659C5.83325 1.83325 5.83325 2.27992 5.83325 3.46659V3.99992C5.83325 4.27325 5.60659 4.49992 5.33325 4.49992C5.05992 4.49992 4.83325 4.27325 4.83325 3.99992V3.46659C4.83325 2.29325 4.83325 0.833252 7.46659 0.833252H8.53325C11.1666 0.833252 11.1666 2.29325 11.1666 3.46659V3.99992C11.1666 4.27325 10.9399 4.49992 10.6666 4.49992Z" fill="white"/>
<path d="M8.00008 11.1667C6.16675 11.1667 6.16675 10.0333 6.16675 9.35333V8.66667C6.16675 7.72667 6.39341 7.5 7.33341 7.5H8.66675C9.60675 7.5 9.83341 7.72667 9.83341 8.66667V9.33333C9.83341 10.0267 9.83341 11.1667 8.00008 11.1667ZM7.16675 8.5C7.16675 8.55333 7.16675 8.61333 7.16675 8.66667V9.35333C7.16675 10.04 7.16675 10.1667 8.00008 10.1667C8.83341 10.1667 8.83341 10.06 8.83341 9.34667V8.66667C8.83341 8.61333 8.83341 8.55333 8.83341 8.5C8.78008 8.5 8.72008 8.5 8.66675 8.5H7.33341C7.28008 8.5 7.22008 8.5 7.16675 8.5Z" fill="white"/>
<path d="M9.33325 9.84675C9.08659 9.84675 8.86659 9.66008 8.83992 9.40674C8.80659 9.13341 8.99992 8.88008 9.27325 8.84675C11.0333 8.62675 12.7199 7.96008 14.1399 6.92675C14.3599 6.76008 14.6733 6.81341 14.8399 7.04008C14.9999 7.26008 14.9533 7.57341 14.7266 7.74008C13.1666 8.87341 11.3266 9.60008 9.39325 9.84675C9.37325 9.84675 9.35325 9.84675 9.33325 9.84675Z" fill="white"/>
<path d="M6.66666 9.85343C6.64666 9.85343 6.62666 9.85343 6.60666 9.85343C4.77999 9.64676 2.99999 8.9801 1.45999 7.92676C1.23333 7.77343 1.17333 7.4601 1.32666 7.23343C1.47999 7.00676 1.79333 6.94676 2.01999 7.1001C3.42666 8.0601 5.04666 8.66676 6.71333 8.8601C6.98666 8.89343 7.18666 9.1401 7.15333 9.41343C7.13333 9.66676 6.91999 9.85343 6.66666 9.85343Z" fill="white"/>
</svg>
