<svg width="45" height="44" viewBox="0 0 45 44" fill="none" xmlns="http://www.w3.org/2000/svg">
<g clip-path="url(#clip0_191_4277)">
<path d="M34.8334 24.4934H3.66675C2.91508 24.4934 2.29175 23.8701 2.29175 23.1184C2.29175 22.3667 2.91508 21.7434 3.66675 21.7434H34.8334C35.5851 21.7434 36.2084 22.3667 36.2084 23.1184C36.2084 23.8701 35.5851 24.4934 34.8334 24.4934Z" fill="#0C5ADB"/>
<path d="M27.9034 39.875H10.5968C4.30847 39.875 2.29175 37.8766 2.29175 31.6616V18.8466C2.29175 13.915 3.41012 11 9.09345 10.67C9.57012 10.6516 10.0651 10.6333 10.5968 10.6333H27.9034C34.1917 10.6333 36.2084 12.6316 36.2084 18.8466V31.955C36.1351 37.95 34.1184 39.875 27.9034 39.875ZM10.5968 13.3833C10.1018 13.3833 9.64347 13.4016 9.2218 13.42C5.94014 13.6216 5.04175 14.3183 5.04175 18.8466V31.6616C5.04175 36.355 5.8118 37.125 10.5968 37.125H27.9034C32.6334 37.125 33.4034 36.3916 33.4584 31.9366V18.8466C33.4584 14.1533 32.6884 13.3833 27.9034 13.3833H10.5968Z" fill="#0C5ADB"/>
<path d="M34.8334 33.33C34.4851 33.33 34.1367 33.2017 33.8984 32.9633C33.6234 32.7067 33.4584 32.34 33.4584 31.955V18.8467C33.4584 14.1533 32.6884 13.3833 27.9034 13.3833H10.5968C10.1018 13.3833 9.64347 13.4017 9.2218 13.42C8.85514 13.4383 8.48838 13.2917 8.21338 13.035C7.93838 12.7783 7.79175 12.4117 7.79175 12.0267C7.86508 6.05 9.8818 4.125 16.0968 4.125H33.4034C39.6917 4.125 41.7084 6.12333 41.7084 12.3383V25.1533C41.7084 30.085 40.59 33 34.9067 33.33C34.8884 33.33 34.8517 33.33 34.8334 33.33ZM10.5968 10.6333H27.9034C34.1917 10.6333 36.2084 12.6317 36.2084 18.8467V30.4333C38.3351 30.0483 38.9584 28.9483 38.9584 25.1533V12.3383C38.9584 7.645 38.1884 6.875 33.4034 6.875H16.0968C11.9168 6.875 10.8351 7.44333 10.5968 10.6333Z" fill="#0C5ADB"/>
<path d="M12.7606 34.0266H9.60718C8.85551 34.0266 8.23218 33.4033 8.23218 32.6516C8.23218 31.8999 8.85551 31.2766 9.60718 31.2766H12.7606C13.5122 31.2766 14.1356 31.8999 14.1356 32.6516C14.1356 33.4033 13.5306 34.0266 12.7606 34.0266Z" fill="#0C5ADB"/>
<path d="M23.0081 34.0266H16.7014C15.9497 34.0266 15.3264 33.4033 15.3264 32.6516C15.3264 31.8999 15.9497 31.2766 16.7014 31.2766H23.0081C23.7598 31.2766 24.3831 31.8999 24.3831 32.6516C24.3831 33.4033 23.7781 34.0266 23.0081 34.0266Z" fill="#0C5ADB"/>
</g>
<defs>
<clipPath id="clip0_191_4277">
<rect width="44" height="44" fill="white" transform="translate(0.5)"/>
</clipPath>
</defs>
</svg>
