<svg width="12" height="12" viewBox="0 0 12 12" fill="none" xmlns="http://www.w3.org/2000/svg">
<path d="M6 0C4.81331 0 3.65328 0.351894 2.66658 1.01118C1.67989 1.67047 0.910851 2.60754 0.456725 3.7039C0.00259972 4.80026 -0.11622 6.00666 0.115291 7.17054C0.346802 8.33443 0.918247 9.40353 1.75736 10.2426C2.59648 11.0818 3.66557 11.6532 4.82946 11.8847C5.99335 12.1162 7.19975 11.9974 8.2961 11.5433C9.39246 11.0892 10.3295 10.3201 10.9888 9.33342C11.6481 8.34673 12 7.18669 12 6C12 4.4087 11.3679 2.88258 10.2426 1.75736C9.11742 0.632141 7.5913 0 6 0ZM6 11C5.0111 11 4.0444 10.7068 3.22215 10.1573C2.39991 9.60794 1.75904 8.82705 1.3806 7.91342C1.00217 6.99979 0.90315 5.99445 1.09608 5.02455C1.289 4.05464 1.76521 3.16373 2.46447 2.46447C3.16373 1.7652 4.05465 1.289 5.02455 1.09607C5.99446 0.903148 6.99979 1.00216 7.91342 1.3806C8.82705 1.75904 9.60794 2.3999 10.1573 3.22215C10.7068 4.04439 11 5.01109 11 6C11 7.32608 10.4732 8.59785 9.53554 9.53553C8.59785 10.4732 7.32609 11 6 11Z" fill="white"/>
<path d="M6.43005 2.54992C5.94995 2.44512 5.44807 2.52075 5.02016 2.76237C4.59226 3.00398 4.26828 3.39468 4.11005 3.85992C4.08834 3.92223 4.07943 3.98829 4.08387 4.05413C4.08831 4.11997 4.10601 4.18423 4.13589 4.24307C4.16577 4.3019 4.20723 4.35409 4.25778 4.39651C4.30833 4.43893 4.36693 4.4707 4.43005 4.48992C4.49308 4.51002 4.55946 4.51741 4.62536 4.51166C4.69126 4.50592 4.75536 4.48716 4.81396 4.45647C4.87256 4.42577 4.92448 4.38376 4.96672 4.33285C5.00897 4.28195 5.04069 4.22317 5.06005 4.15992C5.14163 3.93419 5.30169 3.74533 5.51098 3.62783C5.72028 3.51033 5.96486 3.47203 6.20005 3.51992C6.42901 3.58923 6.62554 3.73833 6.75398 3.94015C6.88241 4.14197 6.93424 4.38315 6.90005 4.61992C6.84726 4.84365 6.71901 5.04236 6.53687 5.18261C6.35474 5.32285 6.12984 5.39606 5.90005 5.38992C5.82954 5.38139 5.75801 5.38799 5.69024 5.40927C5.62247 5.43055 5.56002 5.46603 5.50703 5.51334C5.45405 5.56064 5.41175 5.6187 5.38296 5.68363C5.35417 5.74857 5.33954 5.81889 5.34005 5.88992V7.44992C5.34005 7.58253 5.39273 7.7097 5.4865 7.80347C5.58027 7.89724 5.70745 7.94992 5.84005 7.94992C5.90524 7.95125 5.97003 7.93956 6.03064 7.91553C6.09125 7.8915 6.14645 7.85562 6.19302 7.80999C6.23958 7.76435 6.27657 7.70988 6.30182 7.64977C6.32707 7.58966 6.34007 7.52512 6.34005 7.45992V6.35992C6.72391 6.27907 7.07552 6.08713 7.35111 5.80797C7.62671 5.52882 7.81414 5.17478 7.89005 4.78992C7.96601 4.30219 7.85892 3.8036 7.58939 3.39008C7.31986 2.97656 6.90694 2.67731 6.43005 2.54992ZM5.81005 8.38992C5.67978 8.39711 5.55674 8.45209 5.46448 8.54435C5.37223 8.6366 5.31724 8.75965 5.31005 8.88992V8.99992C5.31133 9.06251 5.3251 9.12422 5.35055 9.18142C5.376 9.23862 5.41263 9.29016 5.45827 9.33301C5.50392 9.37586 5.55766 9.40916 5.61636 9.43096C5.67505 9.45275 5.7375 9.4626 5.80005 9.45992C5.93364 9.45236 6.05943 9.39456 6.15217 9.29811C6.24491 9.20166 6.29774 9.0737 6.30005 8.93992V8.85992C6.30011 8.79648 6.28732 8.73368 6.26246 8.67531C6.2376 8.61695 6.20118 8.56422 6.1554 8.5203C6.10961 8.47639 6.05541 8.4422 5.99606 8.41979C5.93671 8.39738 5.87344 8.38722 5.81005 8.38992Z" fill="white"/>
</svg>
