<svg width="20" height="20" viewBox="0 0 20 20" fill="none" xmlns="http://www.w3.org/2000/svg">
<path d="M14.542 18.9582C13.6003 18.9582 12.6087 18.7332 11.5837 18.2998C10.5837 17.8748 9.57533 17.2915 8.59199 16.5832C7.61699 15.8665 6.67533 15.0665 5.78366 14.1915C4.90033 13.2998 4.10033 12.3582 3.39199 11.3915C2.67533 10.3915 2.10033 9.3915 1.69199 8.42484C1.25866 7.3915 1.04199 6.3915 1.04199 5.44984C1.04199 4.79984 1.15866 4.18317 1.38366 3.60817C1.61699 3.0165 1.99199 2.4665 2.50033 1.9915C3.14199 1.35817 3.87533 1.0415 4.65866 1.0415C4.98366 1.0415 5.31699 1.1165 5.60033 1.24984C5.92533 1.39984 6.20033 1.62484 6.40033 1.92484L8.33366 4.64984C8.50866 4.8915 8.64199 5.12484 8.73366 5.35817C8.84199 5.60817 8.90033 5.85817 8.90033 6.09984C8.90033 6.4165 8.80866 6.72484 8.63366 7.0165C8.50866 7.2415 8.31699 7.48317 8.07533 7.72484L7.50866 8.3165C7.51699 8.3415 7.52533 8.35817 7.53366 8.37484C7.63366 8.54984 7.83366 8.84984 8.21699 9.29984C8.62533 9.7665 9.00866 10.1915 9.39199 10.5832C9.88366 11.0665 10.292 11.4498 10.6753 11.7665C11.1503 12.1665 11.4587 12.3665 11.642 12.4582L11.6253 12.4998L12.2337 11.8998C12.492 11.6415 12.742 11.4498 12.9837 11.3248C13.442 11.0415 14.0253 10.9915 14.6087 11.2332C14.8253 11.3248 15.0587 11.4498 15.3087 11.6248L18.0753 13.5915C18.3837 13.7998 18.6087 14.0665 18.742 14.3832C18.867 14.6998 18.9253 14.9915 18.9253 15.2832C18.9253 15.6832 18.8337 16.0832 18.6587 16.4582C18.4837 16.8332 18.267 17.1582 17.992 17.4582C17.517 17.9832 17.0003 18.3582 16.4003 18.5998C15.8253 18.8332 15.2003 18.9582 14.542 18.9582ZM4.65866 2.2915C4.20033 2.2915 3.77533 2.4915 3.36699 2.8915C2.98366 3.24984 2.71699 3.6415 2.55033 4.0665C2.37533 4.49984 2.29199 4.95817 2.29199 5.44984C2.29199 6.22484 2.47533 7.0665 2.84199 7.93317C3.21699 8.8165 3.74199 9.73317 4.40866 10.6498C5.07533 11.5665 5.83366 12.4582 6.66699 13.2998C7.50033 14.1248 8.40033 14.8915 9.32533 15.5665C10.2253 16.2248 11.1503 16.7582 12.067 17.1415C13.492 17.7498 14.8253 17.8915 15.9253 17.4332C16.3503 17.2582 16.7253 16.9915 17.067 16.6082C17.2587 16.3998 17.4087 16.1748 17.5337 15.9082C17.6337 15.6998 17.6837 15.4832 17.6837 15.2665C17.6837 15.1332 17.6587 14.9998 17.592 14.8498C17.567 14.7998 17.517 14.7082 17.3587 14.5998L14.592 12.6332C14.4253 12.5165 14.2753 12.4332 14.1337 12.3748C13.9503 12.2998 13.8753 12.2248 13.592 12.3998C13.4253 12.4832 13.2753 12.6082 13.1087 12.7748L12.4753 13.3998C12.1503 13.7165 11.6503 13.7915 11.267 13.6498L11.042 13.5498C10.7003 13.3665 10.3003 13.0832 9.85866 12.7082C9.45866 12.3665 9.02533 11.9665 8.50033 11.4498C8.09199 11.0332 7.68366 10.5915 7.25866 10.0998C6.86699 9.6415 6.58366 9.24984 6.40866 8.92484L6.30866 8.67484C6.25866 8.48317 6.24199 8.37484 6.24199 8.25817C6.24199 7.95817 6.35033 7.6915 6.55866 7.48317L7.18366 6.83317C7.35033 6.6665 7.47533 6.50817 7.55866 6.3665C7.62533 6.25817 7.65033 6.1665 7.65033 6.08317C7.65033 6.0165 7.62533 5.9165 7.58366 5.8165C7.52533 5.68317 7.43366 5.53317 7.31699 5.37484L5.38366 2.6415C5.30033 2.52484 5.20033 2.4415 5.07533 2.38317C4.94199 2.32484 4.80033 2.2915 4.65866 2.2915ZM11.6253 12.5082L11.492 13.0748L11.717 12.4915C11.6753 12.4832 11.642 12.4915 11.6253 12.5082Z" fill="#ED742D"/>
</svg>
