<svg width="24" height="24" viewBox="0 0 24 24" fill="none" xmlns="http://www.w3.org/2000/svg">
<path d="M9.56988 5.17891C9.75988 5.17891 9.94988 5.24891 10.0999 5.39891C10.3899 5.68891 10.3899 6.16891 10.0999 6.45891L4.55988 11.9989L10.0999 17.5389C10.3899 17.8289 10.3899 18.3089 10.0999 18.5989C9.80988 18.8889 9.32988 18.8889 9.03988 18.5989L2.96988 12.5289C2.67988 12.2389 2.67988 11.7589 2.96988 11.4689L9.03988 5.39891C9.18988 5.24891 9.37988 5.17891 9.56988 5.17891Z" fill="white"/>
<path d="M3.67 11.25H20.5C20.91 11.25 21.25 11.59 21.25 12C21.25 12.41 20.91 12.75 20.5 12.75H3.67C3.26 12.75 2.92 12.41 2.92 12C2.92 11.59 3.26 11.25 3.67 11.25Z" fill="white"/>
</svg>
