<svg width="45" height="44" viewBox="0 0 45 44" fill="none" xmlns="http://www.w3.org/2000/svg">
<path d="M13.6447 41.7083C9.28134 41.7083 5.70642 38.5367 5.70642 34.6317V30.8916C5.70642 30.1399 6.32975 29.5166 7.08142 29.5166C7.83309 29.5166 8.45642 30.1399 8.45642 30.8916C8.45642 33.1833 10.6747 34.9066 13.6447 34.9066C16.6147 34.9066 18.833 33.1833 18.833 30.8916C18.833 30.1399 19.4564 29.5166 20.208 29.5166C20.9597 29.5166 21.583 30.1399 21.583 30.8916V34.6317C21.583 38.5367 18.0263 41.7083 13.6447 41.7083ZM8.93299 36.4283C9.73966 37.9316 11.5547 38.9583 13.6447 38.9583C15.7347 38.9583 17.5497 37.9133 18.3564 36.4283C17.0547 37.2166 15.4413 37.675 13.6447 37.675C11.848 37.675 10.2347 37.2166 8.93299 36.4283Z" fill="#0C5ADB"/>
<path d="M13.6447 32.6333C10.638 32.6333 7.94307 31.2583 6.60474 29.0766C6.01807 28.1233 5.70642 27.005 5.70642 25.8683C5.70642 23.9433 6.54973 22.1466 8.08973 20.8083C11.0597 18.2049 16.1747 18.205 19.163 20.79C20.703 22.1467 21.5647 23.9433 21.5647 25.8683C21.5647 27.005 21.253 28.1233 20.6664 29.0766C19.3464 31.2583 16.6513 32.6333 13.6447 32.6333ZM13.6447 21.5416C12.2147 21.5416 10.8947 22.0183 9.90471 22.8799C8.96971 23.6866 8.45642 24.75 8.45642 25.8683C8.45642 26.51 8.62134 27.0967 8.95134 27.6467C9.79468 29.04 11.5913 29.9016 13.6447 29.9016C15.698 29.9016 17.4946 29.04 18.3196 27.665C18.6496 27.1334 18.8147 26.5283 18.8147 25.8866C18.8147 24.7683 18.3014 23.7049 17.3664 22.8799C16.3947 22.0183 15.0747 21.5416 13.6447 21.5416Z" fill="#0C5ADB"/>
<path d="M13.6447 37.6751C9.11634 37.6751 5.70642 34.7601 5.70642 30.9101V25.8684C5.70642 21.9634 9.26301 18.7917 13.6447 18.7917C15.7163 18.7917 17.6964 19.5068 19.1814 20.7901C20.7214 22.1468 21.583 23.9434 21.583 25.8684V30.9101C21.583 34.7601 18.173 37.6751 13.6447 37.6751ZM13.6447 21.5417C10.7847 21.5417 8.45642 23.4851 8.45642 25.8684V30.9101C8.45642 33.2017 10.6747 34.9251 13.6447 34.9251C16.6147 34.9251 18.833 33.2017 18.833 30.9101V25.8684C18.833 24.7501 18.3197 23.6867 17.3847 22.8617C16.3947 22.0184 15.0747 21.5417 13.6447 21.5417Z" fill="#0C5ADB"/>
<path d="M35.4065 27.1333C32.6382 27.1333 30.2915 25.08 30.0715 22.44C29.9249 20.9183 30.4749 19.4334 31.5749 18.3517C32.4916 17.3984 33.7932 16.8667 35.1682 16.8667H38.9999C40.8149 16.9217 42.2082 18.3516 42.2082 20.1116V23.8884C42.2082 25.6484 40.8149 27.0783 39.0549 27.1333H35.4065ZM38.9448 19.6167H35.1865C34.5448 19.6167 33.9582 19.855 33.5366 20.295C33.0049 20.8084 32.7482 21.505 32.8215 22.2017C32.9132 23.4117 34.0865 24.3833 35.4065 24.3833H38.9999C39.2382 24.3833 39.4582 24.1634 39.4582 23.8884V20.1116C39.4582 19.8366 39.2382 19.635 38.9448 19.6167Z" fill="#0C5ADB"/>
<path d="M29.8338 38.9584H25.2505C24.4988 38.9584 23.8755 38.3351 23.8755 37.5834C23.8755 36.8317 24.4988 36.2084 25.2505 36.2084H29.8338C34.5638 36.2084 37.6255 33.1467 37.6255 28.4167V27.1334H35.4071C32.6388 27.1334 30.2922 25.0801 30.0722 22.4401C29.9255 20.9184 30.4755 19.4334 31.5755 18.3518C32.4922 17.3984 33.7938 16.8668 35.1688 16.8668H37.6071V15.5834C37.6071 11.2934 35.0955 8.34171 31.0255 7.86504C30.5855 7.79171 30.2005 7.79175 29.8155 7.79175H13.3155C12.8755 7.79175 12.4538 7.82839 12.0321 7.88339C7.99878 8.39673 5.5238 11.3301 5.5238 15.5834V19.2501C5.5238 20.0017 4.90047 20.6251 4.1488 20.6251C3.39714 20.6251 2.7738 20.0017 2.7738 19.2501V15.5834C2.7738 9.93675 6.2572 5.84843 11.6655 5.17009C12.1605 5.09676 12.7288 5.04175 13.3155 5.04175H29.8155C30.2555 5.04175 30.8238 5.06008 31.4105 5.15174C36.8188 5.77508 40.3571 9.88175 40.3571 15.5834V18.2418C40.3571 18.9934 39.7338 19.6168 38.9821 19.6168H35.1688C34.5271 19.6168 33.9405 19.8551 33.5188 20.2951C32.9872 20.8084 32.7305 21.5051 32.8038 22.2017C32.8955 23.4117 34.0689 24.3834 35.3889 24.3834H39.0005C39.7522 24.3834 40.3755 25.0067 40.3755 25.7584V28.4167C40.3755 34.7234 36.1405 38.9584 29.8338 38.9584Z" fill="#0C5ADB"/>
</svg>
